<svg xmlns="http://www.w3.org/2000/svg" xmlns:xlink="http://www.w3.org/1999/xlink" version="1.1" id="Layer_1" x="0px" y="0px" width="1480px" height="1352px" viewBox="0 0 1480 1352" enable-background="new 0 0 1480 1352" xml:space="preserve">
<g>
	<g>
		<g>
			<path fill="#010302" d="M667.249,1103.177c23.069-16.115,43.827-33.137,62.658-50.734c-4.248-1.004,48.066-46.023,85.909-118.311     c19.688-37.603,44.93-94.758,58.59-126.626c3.434-14.188,6.16-28.046,8.256-41.524c9.638,9.513,18.91,19.393,27.812,29.592     c8.569,12.785,50.958,62.924,57.606,81.207c2.072,5.692,18.684,12.714,12.788,13.053c32.759,34.994,82.144,53.904,128.204,38.74     c54.768-17.754,76.984-98.742,32.688-170.571c-55.479-89.99-129.314-167.321-216.626-226.91     c-63.487-43.34-137.088-31.887-165.042,11.203c-4.009,5.192-7.301,11.025-9.634,17.409l-69.908,191.134L441.02,739.791     c-29.232-1.349-54.865,16.723-64.415,42.826c-2.233,6.091-3.579,12.628-3.897,19.452c-1.663,36.058,26.223,66.635,62.269,68.308     l0.006-0.006l267.705,12.368c-24.521,38.892-59.545,77.491-110.507,113.412c-29.545,20.715-36.699,61.487-15.979,91.049     C596.941,1116.753,637.691,1123.904,667.249,1103.177z"/>
		</g>
		<path fill="#010302" d="M1395.543,733.527c-33.032-55.94-105.163-74.505-161.092-41.467    c-55.936,33.03-74.509,105.153-41.476,161.09c33.035,55.938,105.164,74.505,161.094,41.468    C1410.012,861.591,1428.571,789.458,1395.543,733.527z"/>
	</g>
</g>
<g>
	<g>
		<path fill="#B17C94" d="M1422.799,1323.153"/>
	</g>
	<path fill="#FFFFFF" stroke="#FFFFFF" stroke-width="20.8439" d="M1132.004,879.265c-0.101-5.494,0.04-9.768,0.16-12.482   c0.073-1.345,0.151-2.317,0.18-2.861c0.02-0.099,0.03-0.19,0.023-0.268l0.009,0.006c2.477-22.97-14.12-43.622-37.075-46.098   c-22.982-2.497-43.615,14.1-46.108,37.074l-0.002-0.006c-0.261,3.872-7.007,65.201,21.304,139   c3.301,8.552,7.119,17.26,11.476,26.034c6.998,14.072,15.425,28.328,25.537,42.352c10.726,14.879,23.329,29.51,38.149,43.383   c37.45,35.186,88.692,65.169,155.971,83.617c1.887,0.521,3.785,0.902,5.672,1.154c20.38,2.695,40.146-10,45.754-30.378   c1.643-5.981,1.863-12.007,0.928-17.751c-2.521-15.654-13.859-29.193-30.169-33.687c-55.717-15.392-93.713-38.533-120.937-63.989   c-31.565-29.598-49.146-63.365-58.993-94.197c-2.837-8.849-5.06-17.484-6.755-25.682   C1133.367,906.226,1132.219,890.292,1132.004,879.265z"/>
	<path fill="#010302" d="M1132.004,879.265c-0.101-5.494,0.04-9.768,0.16-12.482c0.073-1.345,0.151-2.317,0.18-2.861   c0.02-0.099,0.03-0.19,0.023-0.268l0.009,0.006c2.477-22.97-14.12-43.622-37.075-46.098c-22.982-2.497-43.615,14.1-46.108,37.074   l-0.002-0.006c-0.261,3.872-7.007,65.201,21.304,139c3.301,8.552,7.119,17.26,11.476,26.034   c6.998,14.072,15.425,28.328,25.537,42.352c10.726,14.879,23.329,29.51,38.149,43.383c37.45,35.186,88.692,65.169,155.971,83.617   c1.887,0.521,3.785,0.902,5.672,1.154c20.38,2.695,40.146-10,45.754-30.378c1.643-5.981,1.863-12.007,0.928-17.751   c-2.521-15.654-13.859-29.193-30.169-33.687c-55.717-15.392-93.713-38.533-120.937-63.989   c-31.565-29.598-49.146-63.365-58.993-94.197c-2.837-8.849-5.06-17.484-6.755-25.682   C1133.367,906.226,1132.219,890.292,1132.004,879.265z"/>
	<path fill="#010302" d="M1053.248,812.582c0,0-21.795,34.188-23.433,50.487c-1.64,16.296-25.949-12.994-25.949-12.994   l45.053-70.546L1053.248,812.582z"/>
</g>
<path fill="#929292" stroke="#FFFFFF" stroke-width="8.8313" d="M933.198,789.71c0-0.166,0.007-0.329,0.007-0.494  c0-38.439-20.146-69.6-45-69.6c-24.667,0-44.688,30.7-44.986,68.741c-23.154,111.67-23.156,459.259-23.156,459.259h118.286  l25.714-4.801C964.062,1242.815,951.995,893.689,933.198,789.71z"/>
<rect x="748.062" y="1217.616" fill="#929292" width="282" height="70"/>
<g>
	<g>
		<path fill="#494948" d="M85.057,735.062c-0.826,4.151-31.031,160.861-31.031,494.413c0,34.371,27.866,62.238,62.227,62.238    c34.367,0,62.233-27.867,62.233-62.238c0-168.696,7.897-289.858,15.415-366.973c13.701,1.455,27.392,2.911,41.086,4.377    c16.96,88.329,57.392,218.215,149.923,391.856c11.196,21.021,32.713,32.988,54.969,32.978c9.871,0,19.891-2.354,29.208-7.32    c30.329-16.157,41.826-53.834,25.668-84.168c-86.661-162.78-118.725-269.812-145.156-338.533    c4.982-0.466-59.802-60.452,99.118-333.036c17.185-29.479-0.113-52.533-1.518-54.015c-4.105-4.218-8.917-7.294-14.058-9.297    c-47.994-33.453-95.983-66.905-143.979-100.353c-2.368-1.688-4.961-2.922-7.66-3.803c-0.521-6.826-0.853-13.898-0.853-21.208    c0-34.164,6.659-71.53,26.928-104.291c20.442-32.678,54.168-63.172,117.883-84.074c42.408-13.773,52.491-20.778,124.578-20.752    c21.997,0,36.121-16.774,36.121-38.77c0-21.997-20.262-35.239-44.05-35.239c-117.651,0-149.415,13.867-211.127,49.792    c-61.772,35.739-97.766,86.882-114.728,137.21c-11.502,33.571-15.24,66.646-15.251,96.124c0.062,31.687,4.316,59.342,8.767,79.78    c-53.699,92.638-93.435,192.62-117.827,296.724C88.753,722.131,86.373,728.352,85.057,735.062z"/>
		<path fill="#494948" d="M410.303,413.75c-60.271-13.846-97.906-73.935-84.06-134.211c13.846-60.277,73.94-97.91,134.213-84.065    c60.269,13.846,97.913,73.94,84.068,134.212C530.679,389.973,470.59,427.606,410.303,413.75z"/>
	</g>

</g>
</svg>