<svg xmlns="http://www.w3.org/2000/svg" xmlns:xlink="http://www.w3.org/1999/xlink" version="1.1" id="Layer_1" x="0px" y="0px" width="1259.748px" height="1181.764px" viewBox="0 0 1259.748 1181.764" enable-background="new 0 0 1259.748 1181.764" xml:space="preserve">
<g>
	<g>
		<path fill="none" d="M688.76,868.316l-0.146,0.142c0.217,0.569,0.424,1.149,0.624,1.74    C689.078,869.571,688.922,868.94,688.76,868.316z"/>
		<path fill="#010302" d="M899.621,460.185c-104.25-21.266-211.853-20.339-315.717,2.695    c-75.529,16.742-117.818,78.643-105.447,128.835c1.049,6.519,3.064,12.951,6.141,19.061l18.862,37.459    c38.744,12.123,104.964,58.005,184.839,215.702l-0.902,1.639c0.432,0.926,0.838,1.888,1.217,2.883l0.146-0.142    c0.162,0.624,0.318,1.255,0.478,1.882c0.973,2.882,1.732,6.004,2.234,9.308c9.539,42.248,12.429,90.98,4.41,148.018    c-5.146,35.949,19.848,69.279,55.812,74.435c35.975,5.134,69.285-19.847,74.432-55.813c4.064-28.029,5.868-54.984,5.925-80.924    c-3.663,2.426-0.673-66.975-27.657-144.531c-14.037-40.346-38.595-98.236-52.576-130.207    c-8.046-12.291-16.34-23.837-24.787-34.658c13.619-0.521,27.254-0.521,40.873-0.029c9.94,1.636,41.329,3.658,67.013,6.992    c0.245-0.041,0.577-0.002,1.009,0.132c7.206,0.951,13.929,2.008,19.558,3.191c8.267,0.779,17.871,1.405,26.5,1.88    c2.616-0.542,4.382-0.746,4.097,0.218c3.67,0.188,7.071,0.347,10.002,0.476c44.549-3.075,87.109-26.009,106.206-67.033    C1026.977,549.23,982.845,477.146,899.621,460.185z M811.31,586.941l-2.64-84.203l22.371,25.002c0,0,1.312,40.784,9.211,55.256    C848.144,597.467,811.31,586.941,811.31,586.941z"/>
		<path fill="#010302" d="M1130.914,343.845c-63.801-14.287-127.104,25.862-141.379,89.661    c-14.283,63.797,25.854,127.101,89.656,141.383c63.803,14.283,127.105-25.861,141.379-89.659    C1234.863,421.427,1194.709,358.128,1130.914,343.845z"/>
		<path fill="#010302" d="M831.041,527.74l-22.371-25.002l2.64,84.203c0,0,36.834,10.525,28.942-3.945    C832.353,568.524,831.041,527.74,831.041,527.74z"/>
	</g>
	<g>
		<path fill="#FFFFFF" stroke="#FFFFFF" stroke-width="18.7352" d="M911.324,606.142c4.687-1.558,8.391-2.582,10.752-3.205    c1.174-0.299,2.028-0.488,2.502-0.61c0.093-0.012,0.174-0.024,0.236-0.051l-0.002,0.007c20.372-4.023,33.648-23.793,29.628-44.151    c-4.011-20.387-23.774-33.65-44.156-29.637l0.007-0.005c-3.392,0.812-57.824,11.443-113.566,55.493    c-6.449,5.12-12.903,10.729-19.264,16.817c-10.203,9.772-20.176,20.819-29.503,33.248c-9.894,13.188-19.073,27.919-27.01,44.349    c-20.166,41.553-32.175,93.55-29.991,156.217c0.06,1.755,0.24,3.486,0.527,5.175c3.145,18.208,19.328,31.769,38.315,31.124    c5.575-0.191,10.802-1.613,15.479-3.954c12.757-6.356,21.34-19.709,20.828-34.907c-1.711-51.927,7.974-90.722,22.526-120.898    c16.945-35.009,41.214-59.133,65.033-75.837c6.831-4.803,13.647-9.022,20.226-12.672    C888.556,614.53,901.921,609.277,911.324,606.142z"/>
		<path fill="#010302" d="M911.324,606.142c4.687-1.558,8.391-2.582,10.752-3.205c1.174-0.299,2.028-0.488,2.502-0.61    c0.093-0.012,0.174-0.024,0.236-0.051l-0.002,0.007c20.372-4.023,33.648-23.793,29.628-44.151    c-4.011-20.387-23.774-33.65-44.156-29.637l0.007-0.005c-3.392,0.812-57.824,11.443-113.566,55.493    c-6.449,5.12-12.903,10.729-19.264,16.817c-10.203,9.772-20.176,20.819-29.503,33.248c-9.894,13.188-19.073,27.919-27.01,44.349    c-20.166,41.553-32.175,93.55-29.991,156.217c0.06,1.755,0.24,3.486,0.527,5.175c3.145,18.208,19.328,31.769,38.315,31.124    c5.575-0.191,10.802-1.613,15.479-3.954c12.757-6.356,21.34-19.709,20.828-34.907c-1.711-51.927,7.974-90.722,22.526-120.898    c16.945-35.009,41.214-59.133,65.033-75.837c6.831-4.803,13.647-9.022,20.226-12.672    C888.556,614.53,901.921,609.277,911.324,606.142z"/>
	</g>
</g>

<path fill="#FFFFFF" stroke="#FFFFFF" stroke-width="5.5173" d="M-310.666,5734.926c0,0-17.353,28.276-21.124,33.934  c-3.772,5.658-3.772,5.658-3.772,5.658S-347.961,5827.265-310.666,5734.926z"/>
<ellipse fill="#010302" cx="609.416" cy="580.094" rx="135" ry="107"/>
<path fill="#FDFEFE" d="M724.416,633.094c0,0-10,16-12,24l-24-22L724.416,633.094z"/>
<path fill="#494948" stroke="#FDFDFE" stroke-width="9" d="M381.26,228.973c0,0,45.633-41.006,293.504,212.313  c0,0,34.894,25.604,15.269,61.436c0,0-23.09,34.154-56.094,15.568c0,0-147.279-135.776-199.103-153.88  C383.016,346.306,381.26,228.973,381.26,228.973z"/>

<g>
	<path fill="#494948" d="M326.848,580.411c-4.591,1.297-9.354,1.952-14.136,1.952c-5.343,0-10.543-0.857-15.469-2.4   c0.656,1.388,1.282,2.78,1.842,4.198c5.111,13.014,4.845,27.228-0.743,40.029c-3.104,7.121-7.671,13.293-13.262,18.243   c-6.823,6.052-15.198,10.14-24.252,11.997c-3.425,0.697-6.896,1.184-10.473,1.184c-7.213,0-14.253-1.469-20.893-4.371   c-38.562-16.813-71.323-36.383-98.02-58.48v43.659v399.24c0,35.731,28.972,64.688,64.688,64.688   c35.727,0,64.696-28.956,64.696-64.688V676.854h24.252v358.808c0,35.731,28.97,64.688,64.689,64.688   c35.721,0,64.692-28.956,64.692-64.688v-399.24v-91.463l-0.008-0.261C390.219,558.872,361.26,570.735,326.848,580.411z"/>
	<path fill="#494948" d="M450.981,504.245c0.026-0.026,0.053-0.053,0.079-0.079c-0.026-0.023-0.054-0.044-0.081-0.067   C450.98,504.147,450.981,504.196,450.981,504.245z"/>
	<path fill="#494948" d="M470.975,377.187c-2.003-39.527-8.092-75.801-16.011-88.01c-18.568-28.071-36.395-45.727-37.7-47.067   c-10.524-10.445-25.206-14.107-38.679-11.075c-0.423,0.622-0.852,1.239-1.287,1.852c-8.408,11.84-18.695,22.085-30.44,30.365   c-20.988,14.79-46.481,23.359-73.805,23.359c-9.751,0-19.56-1.124-29.159-3.362c-16.378-3.816-31.531-10.685-44.867-20.103   c-11.631-8.206-21.779-18.439-30.222-30.27c-0.425-0.603-0.837-1.212-1.254-1.816c-14.583-3.361-30.494,1.214-41.005,13.296v-0.009   c-1.335,1.575-18.018,20.818-35.115,52.013c-16.928,31.182-34.921,74.666-35.092,125.787   c-0.179,38.234,11.158,80.779,39.994,119.177c4.432,5.931,9.282,11.746,14.48,17.455c6.297,6.922,13.167,13.678,20.63,20.258   c26.354,23.216,60.062,44.238,102.216,62.622c5.434,2.372,11.118,3.495,16.696,3.495c3.563,0,7.066-0.529,10.473-1.413   c9.718-2.517,18.432-8.476,24.252-17.159c1.378-2.059,2.645-4.214,3.668-6.562c5.927-13.607,4.036-28.621-3.668-40.091   c-4.293-6.398-10.371-11.7-17.96-15.01c-2.151-0.938-4.211-1.89-6.292-2.835c-50.563-22.988-80.331-47.901-97.37-70.798   c-7.088-9.619-12.154-18.953-15.785-28.167c22.329,21.716,55.668,67.857,113.155,88.715c1.705,0.616,41.565,20.062,51.884,20.067   c3.734,0,7.529-0.508,11.313-1.562c36.101-10.152,65.844-22.557,90.079-37.464L408.987,360.2   C408.987,360.2,442.496,356.737,470.975,377.187z"/>
	<path fill="#494948" d="M246.267,273.059c45.264,10.54,90.488-6.592,117.994-40.339c10.969-13.459,19.128-29.55,23.331-47.601   c14.735-63.308-24.638-126.587-87.932-141.321c-63.312-14.746-126.587,24.629-141.333,87.937   c-8.592,36.872,1.206,73.718,23.375,100.985C197.593,252.269,219.832,266.906,246.267,273.059z"/>
</g>
<path fill="#494948" d="M410.987,359.2l4.5,220.489l-61.497,28.499l-39.278-25.825l-15.469-2.4c0,0-9.083-18.486-36.415-28.129  L410.987,359.2z"/>
<ellipse fill="#494948" cx="252.416" cy="599.094" rx="40" ry="36"/>

</svg>