<svg xmlns="http://www.w3.org/2000/svg" xmlns:xlink="http://www.w3.org/1999/xlink" version="1.1" id="Layer_1" x="0px" y="0px" width="1445.711px" height="1337.733px" viewBox="0 0 1445.711 1337.733" enable-background="new 0 0 1445.711 1337.733" xml:space="preserve">

<g>
	<path fill="#010302" d="M1121.635,644.499c20.42-65.433,90.021-101.914,155.459-81.493   c65.432,20.425,101.908,90.028,81.494,155.448c-20.422,65.438-90.028,101.924-155.466,81.51   C1137.701,779.533,1101.207,709.93,1121.635,644.499z"/>
	<path fill="#010302" d="M1096.742,297.943c-51.197,132.113-92.879,171.418-160.52,242.437   c-34.974,36.704-69.258,66.08-100.207,89.307c46.466,5.415,92.303,7.097,131.369,8.847c-7.725,37.421-10.714,63.95-11.706,74.883   l-0.015,0.135l-0.072,0.695c-2.307,30.318,20.469,56.892,50.797,59.219c16.598,1.277,32.713-4.919,44.204-16.994   c8.712-9.153,14.046-21.169,15.017-33.804l0.124-1.201c0.075-0.943,0.258-2.624,0.513-4.887c0.473-4.148,1.363-11.143,2.844-20.674   c1.131-7.166,2.723-16.299,4.817-26.913c16.418,14.105,26.979,32.317,26.972,52.824c0,48.541-41.331,108.605-126.44,116.014   c-117.085,9.516-189.333-0.188-304.809-43.686c-82.015-38.233-76.142-99.506-63.285-148.417   c6.124-23.304,11.781-40.146,23.97-48.935c7.283-8.847,16.848-16.018,28.291-20.447c1.153-0.463,6.084-2.526,14.328-6.622   c28.428-14.11,94.138-51.665,163.368-124.44c56.52-59.44,88.412-78.107,132.776-192.396c3.363-8.662,16.542-48.698,22.532-55.071   c29.241-31.091,60.405-22.676,87.249-12.258C1114.375,199.321,1110.509,262.431,1096.742,297.943z"/>
	<path fill="#010302" d="M1055.27,715.361c-0.254,2.37-0.441,4.111-0.538,5.2c-0.05,0.549-0.075,0.92-0.098,1.141   c-0.015,0.12-0.015,0.12-0.026,0.125c-1.854,24.311-23.065,42.511-47.376,40.636c-24.296-1.858-42.49-23.072-40.637-47.382   l0.011,0.011c0.173-1.567,2.408-30.098,12.037-76.03c15.426-73.551,49.87-191.828,125.551-316.261   c1.67-2.75,3.604-5.256,5.731-7.498c14.021-14.725,36.854-18.228,54.921-7.223c20.813,12.687,27.42,39.842,14.732,60.658   c-55.988,91.847-87.433,181.033-104.706,246.902c-4.456,16.961-7.964,32.339-10.724,45.841   c-2.596,12.684-4.541,23.718-5.957,32.722C1056.742,703.485,1055.813,710.657,1055.27,715.361z"/>
</g>
<path fill="#929292" stroke="#FFFFFF" stroke-width="8.8313" d="M1168.287,835.125H1012.51c0.082,0.4,0.152,0.812,0.232,1.213  l-363.872,0.84c-75.843,0.033-137.243,60.373-137.285,134.889v279.341H644.01V965.492c0-2.623,2.199-4.783,4.86-4.783h473.6  c-0.081-0.673-0.13-1.356-0.153-2.048h45.971c2.664,0,4.862,2.155,4.862,4.784v285.909h132.425V970.019  C1305.531,895.503,1244.13,835.157,1168.287,835.125z"/>
<path fill="#494948" d="M339.955,607.979h143.423v46.95l-118.142,29.408l-12.275-8.071c0,0-10.946-21.854-22.294-34.754  C319.32,628.615,339.955,607.979,339.955,607.979z"/>
<g>
	<path fill="#494948" d="M295.995,333.298c50.582,11.779,101.122-7.365,131.858-45.078c12.258-15.04,21.376-33.022,26.073-53.193   c16.467-70.747-27.532-141.462-98.265-157.928c-70.75-16.479-141.461,27.522-157.939,98.27   c-9.602,41.204,1.348,82.38,26.121,112.852C241.603,310.066,266.454,326.424,295.995,333.298z"/>
	<g>
		<path fill="#494948" d="M370.248,678.949c-5.971,0-11.781-0.959-17.287-2.683c0.734,1.551,1.434,3.107,2.06,4.692    c5.712,14.542,5.413,30.427-0.831,44.731c-3.469,7.958-8.571,14.854-14.82,20.388c-7.625,6.763-16.984,11.331-27.102,13.406    c-3.826,0.78-7.705,1.324-11.703,1.324c-8.061,0-15.928-1.643-23.348-4.887c-43.092-18.788-79.704-40.657-109.537-65.351v48.788    v446.152c0,39.931,32.377,72.29,72.29,72.29c39.925,0,72.298-32.359,72.298-72.29V784.542h27.102v400.969    c0,39.931,32.374,72.29,72.291,72.29c39.918,0,72.295-32.359,72.295-72.29V739.359V636.852    c-27.084,15.841-59.45,29.102-97.91,39.914C380.914,678.216,375.591,678.949,370.248,678.949z"/>
		<path fill="#494948" d="M869.606,327.877c-17.991-18.081-46.87-19.227-64.511-2.563l-0.022,0.026    c-2.063,2.058-37.785,33.67-86.503,51.939c-18.718,7.086-39.117,12.216-60.238,13.778c-6.364,0.468-12.775,0.646-19.246,0.42    c-2.402-0.092-4.827-0.291-7.242-0.479c-25.775-2.01-52.398-9.607-81.207-27.524c-8.487-5.312-17.166-11.573-26.001-18.917    c-19.013-27.424-36.199-44.456-37.55-45.843c-11.762-11.673-28.169-15.766-43.224-12.377c-0.474,0.695-0.953,1.386-1.439,2.069    c-9.396,13.23-20.892,24.68-34.018,33.934c-23.454,16.527-51.942,26.104-82.476,26.104c-10.898,0-21.859-1.257-32.586-3.758    c-18.304-4.265-35.236-11.94-50.141-22.465c-12.996-9.17-24.338-20.606-33.771-33.826c-0.475-0.673-0.936-1.354-1.401-2.03    c-16.298-3.756-34.078,1.357-45.823,14.858v-0.01c-1.492,1.761-20.135,23.265-39.241,58.125    c-18.917,34.845-39.024,83.438-39.216,140.567c-0.199,42.727,12.469,90.271,44.693,133.181    c4.952,6.627,10.373,13.125,16.182,19.505c7.037,7.736,14.715,15.285,23.055,22.64c29.451,25.943,67.119,49.436,114.227,69.979    c6.072,2.651,12.425,3.906,18.658,3.906c3.982,0,7.897-0.593,11.703-1.579c10.859-2.812,20.598-9.472,27.102-19.176    c1.54-2.3,2.956-4.709,4.099-7.332c6.623-15.206,4.511-31.984-4.099-44.803c-4.797-7.149-11.59-13.075-20.07-16.772    c-2.404-1.05-4.705-2.111-7.031-3.168c-56.505-25.69-89.77-53.53-108.811-79.117c-7.922-10.749-13.584-21.18-17.641-31.477    c24.952,24.268,62.21,75.831,126.451,99.139c1.906,0.689,46.45,22.42,57.98,22.426c4.174,0,8.414-0.566,12.643-1.746    c40.54-11.401,73.91-25.34,101.064-42.107c0.45-0.278,0.887-0.562,1.333-0.841l-5.238-201.551    c7.995,6.059,16.052,11.624,24.159,16.695c29.527,18.558,59.707,30.377,88.996,36.807c17.583,3.86,34.845,5.777,51.453,6.044    c0.71,0.021,1.401-0.018,2.106-0.006c29.08,0.247,56.008-4.041,80.363-10.819c25.698-7.15,48.491-17.025,67.919-27.209    c3.761-1.967,7.426-3.928,10.916-5.889c13.912-7.905,25.792-15.755,35.453-22.694c17.587-12.598,27.754-22.14,28.858-23.152    c2.63-2.495,4.866-5.243,6.702-8.18c2.214-3.534,3.81-7.349,4.851-11.298C885.737,356.628,881.68,339.996,869.606,327.877z"/>
	</g>
</g>

</svg>