<svg xmlns="http://www.w3.org/2000/svg" xmlns:xlink="http://www.w3.org/1999/xlink" version="1.1" id="Layer_1" x="0px" y="0px" width="2012px" height="1460px" viewBox="0 0 2012 1460" enable-background="new 0 0 2012 1460" xml:space="preserve">

<g>
	<g>
		<path fill="#010302" d="M1749.52,639.851c28.614-58.043,4.76-128.283-53.274-156.883c-58.054-28.609-128.287-4.756-156.894,53.277    c-28.609,58.044-4.748,128.274,53.279,156.898C1650.675,721.759,1720.924,697.884,1749.52,639.851z"/>
		<path fill="#010302" d="M775.099,916.438l253.978,0.896c24.917,0.087,47.917-14.242,58.787-36.651l63.413-130.548    c87.895-18.391,193.036-1.703,266.267,6.669c52.856,10.788,113.147-13.631,120.666-58.826c5.198-31.199-7.34-70.18-40.929-98.561    c0,0-44.265-30.995-129.205-43.935c0,0-72.977-14.807-180.437,1.201c-12.695,2.008-25.905,4.394-39.795,7.141    c-30.6,8.508-53.039,24.907-68.166,44.377c-5.136,5.061-9.56,11.011-12.896,17.878l-78.155,160.911l-213.06-0.737    c-12.135-0.052-23.508,3.225-33.254,8.977c-19.124,11.276-31.991,32.063-32.072,55.887    C710.118,887.064,739.149,916.32,775.099,916.438z"/>
	</g>
	<path fill="#929292" stroke="#FFFFFF" stroke-width="8.8313" d="M1934.056,844.835c-23.722-4.253-140.094-32.634-184.323,1.342   c-25.119,19.301-51.374,57.688-63.346,85.397H591.223v456.871h1360.898V935.998C1965.34,900.612,1951.866,848.021,1934.056,844.835   z"/>
	<g>
		<path fill="none" d="M370.961,787.5c-14.911-45.389-33.584-89.496-55.869-131.851c3.873,9.899,8.285,20.557,13.319,32.022    C344.577,724.495,359.534,757.489,370.961,787.5z"/>
		<path fill="#FFFFFF" d="M285.601,543.441c-16.252-1.666-30.373,7.379-42.61,23.428c4.384-2.903,8.902-5.725,13.572-8.448    C265.703,553.066,275.386,548.067,285.601,543.441z"/>
		<g>
			<path fill="none" d="M370.961,787.5c8.07,21.193,14.373,40.895,18.102,59.408c1.16,0.699,2.334,1.398,3.524,2.098     c-16.928-66.481-41.736-130.725-73.954-191.342c-0.513,1.023-1.015,2.062-1.516,3.103c3.369,8.434,7.114,17.387,11.293,26.905     C344.577,724.495,359.534,757.489,370.961,787.5z"/>
			<path fill="#494948" d="M667.124,816.26c-1.378-7.023-3.871-13.534-7.201-19.444c-25.521-108.916-67.093-213.518-123.278-310.439     c4.659-21.382,9.104-50.312,9.17-83.465c-0.01-30.848-3.921-65.449-15.95-100.568c-17.751-52.658-55.41-106.164-120.033-143.558     c-64.565-37.587-153.848-59.87-276.938-59.899c-23.012,0-41.667,18.65-41.667,41.665c0,23.01,18.655,41.677,41.667,41.677     c75.422-0.025,133.72,9.195,178.092,23.604c66.66,21.87,101.941,53.776,123.329,87.966     c21.21,34.275,28.172,73.368,28.172,109.113c0.006,7.64-0.34,15.046-0.89,22.186c-2.828,0.922-5.533,2.213-8.016,3.979     c-50.217,34.992-100.422,69.99-150.633,104.988c-4.114,1.607-8.023,3.873-11.557,6.819c2.354-1.013,4.743-2.002,7.153-2.976     c-2.411,0.973-4.798,1.963-7.153,2.976c-1.95,0.839-3.879,1.692-5.791,2.558c-10.214,4.626-19.897,9.625-29.038,14.98     c-4.67,2.723-9.188,5.545-13.572,8.448c-38.34,25.39-65.806,57.335-83.717,90.29c-0.33,0.585-0.6,1.18-0.915,1.765     c-12.933,24.216-21.128,48.619-26.107,71.955c-5.265,24.627-6.974,48.013-6.958,68.719c0,4.009,0.041,7.929,0.147,11.708     c0.53,15.097,1.901,28.469,3.479,39.586c2.843,20.224,6.378,32.902,6.738,34.266c0.94,3.296,2.259,6.363,3.912,9.186     c1.988,3.398,4.48,6.398,7.329,9.002c10.569,9.695,26.261,13.576,41.677,8.779c8.826-2.741,16.259-7.92,21.726-14.502     c8.777-10.566,12.475-24.757,8.642-38.343l-0.015-0.031c-0.818-2.624-11.633-46.335-5.6-95.08     c2.258-18.759,6.893-38.065,14.82-56.417c2.396-5.527,5.057-10.965,8.077-16.28c1.124-1.969,2.354-3.911,3.564-5.849     c12.954-20.681,30.961-39.627,58.553-55.887c1.964-1.15,3.987-2.283,6.053-3.403c3,8.926,6.532,18.679,10.693,29.316     c22.285,42.355,40.958,86.462,55.869,131.851c21.706,57.004,30.671,103.242,10.965,144.492     c-15.246,78.123-52.773,200.63-143.439,370.936c-16.906,31.727-4.878,71.149,26.849,88.057c9.752,5.197,20.239,7.66,30.563,7.66     c23.284,0.006,45.796-12.518,57.51-34.506c96.806-181.673,139.112-317.555,156.853-409.977     c14.328-1.525,28.655-3.051,42.988-4.576c7.864,80.682,16.129,207.443,16.129,383.945c0,35.959,29.148,65.107,65.107,65.107     c35.95,0,65.104-29.148,65.104-65.107C699.589,984.557,667.984,820.599,667.124,816.26z M339.821,523.991     c-1.13,0.313-2.248,0.635-3.367,0.955C337.574,524.626,338.69,524.303,339.821,523.991z M333.625,525.761     c-1.49,0.438-2.971,0.883-4.443,1.334C330.655,526.644,332.133,526.198,333.625,525.761z M327.822,527.514     c-1.711,0.531-3.415,1.068-5.103,1.616C324.407,528.582,326.11,528.044,327.822,527.514z M300.152,537.271     c1.969-0.785,3.955-1.558,5.961-2.316C304.105,535.712,302.122,536.487,300.152,537.271z M322.666,529.148     c-2.591,0.842-5.151,1.708-7.687,2.591C317.513,530.855,320.074,529.99,322.666,529.148z M314.142,532.033     c-2.23,0.782-4.434,1.583-6.62,2.398C309.707,533.615,311.914,532.816,314.142,532.033z"/>
		</g>
	</g>
	
	
	
	<ellipse fill="#FFFFFF" cx="72.858" cy="430.47" rx="6" ry="7.501"/>
	<ellipse fill="#FFFFFF" cx="78.858" cy="388.466" rx="6" ry="7.5"/>
</g>

<path fill="#010302" stroke="#FFFFFF" stroke-width="8" d="M1676.016,900.006c1.793,1.485,3.111,2.578,3.947,3.246  c0.424,0.338,0.714,0.561,0.881,0.698c0.089,0.076,0.089,0.076,0.086,0.087c18.895,14.683,20.219,40.704,2.948,58.115  c-17.244,17.407-46.541,19.619-65.436,4.939l0.017-0.002c-1.184-0.987-23.316-18.261-55.051-50.644  c-50.812-51.861-126.29-142.564-180.191-267.898c-1.192-2.768-2.014-5.602-2.49-8.439c-3.104-18.672,8.768-37.899,29.545-45.591  c23.942-8.854,50.658,0.966,59.655,21.951c39.704,92.608,93.079,165.152,136.349,214.219c11.135,12.641,21.578,23.697,30.951,33.164  c8.804,8.894,16.666,16.394,23.191,22.384C1667.153,892.403,1672.479,897.024,1676.016,900.006z"/>

<path fill="#494948" d="M317.839,499.089c63.058-14.485,102.435-77.35,87.944-140.414c-14.486-63.063-77.357-102.44-140.414-87.955  c-63.059,14.49-102.44,77.36-87.955,140.419C191.899,474.207,254.77,513.585,317.839,499.089z"/>
</svg>