<svg xmlns="http://www.w3.org/2000/svg" xmlns:xlink="http://www.w3.org/1999/xlink" version="1.1" id="Layer_1" x="0px" y="0px" width="1784px" height="1496px" viewBox="0 0 1784 1496" enable-background="new 0 0 1784 1496" xml:space="preserve">

<g>
	<path fill="#494948" d="M264.685,476.013c-5.445,0.729-9.708,1.078-12.418,1.27c-1.346,0.082-2.32,0.115-2.863,0.149   c-0.101-0.009-0.191-0.009-0.268,0.007l0.005-0.009c-5.776,0.042-10.073,5.302-12.909,13.166   c19.621,11.56,21.406,29.14,24.621,44.56c2.623,12.576-9.786,28.051-2,28c0,0,56.413-2.556,126.486-39.129   c8.119-4.257,16.332-9.047,24.55-14.379c13.179-8.563,26.376-18.566,39.15-30.218c13.553-12.358,26.646-26.554,38.73-42.864   c30.668-41.232,54.588-95.569,65.214-164.518c0.303-1.934,0.463-3.863,0.498-5.767c0.345-20.555-14.529-38.737-35.416-41.976   c-6.131-0.947-12.141-0.477-17.74,1.11c-15.263,4.297-27.415,17.109-30.012,33.826c-8.914,57.113-27.553,97.508-49.726,127.467   c-25.79,34.745-57.323,56.075-86.825,69.388c-8.466,3.832-16.79,7.027-24.739,9.65   C291.312,471.572,275.614,474.538,264.685,476.013z"/>
	<g>
		
			<ellipse transform="matrix(0.7814 0.624 -0.624 0.7814 664.0939 -415.6548)" fill="#010302" stroke="#FFFFFF" stroke-width="8" cx="925.336" cy="740.074" rx="108" ry="66.217"/>
		<path fill="#010302" stroke="#FFFFFF" stroke-width="8" d="M1016.694,734.238c-56.221-97.818-103.232-149.693-200.517-217.382    c-74.911-44.072-120.193-6.054-151.89,30.741c-2.709,3.145-5.247,6.157-7.616,9.079c-1.238,1.212-2.415,2.422-3.468,3.611    c-0.037,0.043-0.075,0.086-0.114,0.13c-13.136,15.724-15.235,26.617-17.657,35.118c-1.994,8.561-2.668,15.467-3.125,22.337    c-0.79,13.54-0.281,26.859,0.693,41.508c2.021,29.021,6.412,62.53,11.343,95.256c2.614,17.329,5.389,34.375,8.056,50.08    l-188.873,4.989c-36.559,0.968-65.422,31.411-64.457,67.968c0.967,36.572,31.4,65.435,67.973,64.467l241.311-6.384    c0.249-0.242,0.498-0.482,0.746-0.727c50.775-4.283,89.88-31.879,89.005-64.165c-0.122-4.497-1.021-8.858-2.602-13.044    c0.333-0.271,0.67-0.551,1.002-0.823c-0.057-0.312-0.067-0.625-0.132-0.938c-0.009-0.008-0.434-2.186-1.241-6.4    c-0.802-4.219-1.984-10.351-3.386-17.971c-2.819-15.221-6.623-36.321-10.499-59.578c-1.9-11.307-3.804-23.233-5.619-35.236    c24.507,27.908,46.738,56.879,66.555,83.094c7.24,15.412,18.083,30.954,32.162,45.051c13.752,13.769,28.887,24.435,43.937,31.688    c-0.315,0.231-0.625,0.459-0.944,0.693c14.269,7.036,29.277,10.827,43.486,10.411c14.489,0.213,27.224-3.926,36.377-12.881    C1033.605,867.048,1055.947,803.44,1016.694,734.238z"/>
	</g>
	<path fill="#010302" d="M1230.241,918.745c-49.033,43.924-124.395,39.781-168.317-9.256   c-43.918-49.042-39.769-124.405,9.272-168.324c49.026-43.913,124.398-39.773,168.315,9.267   C1283.432,799.462,1279.282,874.827,1230.241,918.745z"/>
	<path fill="#929292" stroke="#FFFFFF" stroke-width="8.8313" d="M1700.687,861.641c-23.722-4.253-140.094-32.634-184.323,1.342   c-25.119,19.301-51.374,57.688-63.346,85.397H357.854v456.871h1360.898V952.804   C1731.971,917.418,1718.496,864.826,1700.687,861.641z"/>

	<path fill="#010302" stroke="#FFFFFF" stroke-width="8" d="M881.891,909.244c1.677,13.302,7.083,25.465,14.752,34.741   c17.782,21.058,42.324,28.132,65.603,31.745c35.34,4.982,72.704,1.141,102.562-3.227c29.708-4.461,51.473-9.934,52.461-10.167   c22.969-5.772,39.562-28.005,37.062-49.653c-2.499-21.657-23.149-34.526-46.118-28.747c0,0-0.237,0.062-1.136,0.277   c-6.646,1.622-41.602,9.521-76.225,11.941c-17.247,1.263-34.373,1.04-46.702-1.123c-12.641-1.987-18.734-6.303-18.936-7.094   c-0.279-0.453-0.112,0.015-0.275-0.688c-0.154-0.906-0.323-5.99,4.854-17.223c5.057-11.095,15.259-27.462,32.145-48.246   c15.308-18.854,13.656-43.958-3.676-56.063c-14.774-10.327-36.181-7.874-51.639,4.761c-2.671,2.183-5.161,4.667-7.412,7.444   c-27.161,33.663-44.581,62.078-53.155,90.03C881.862,881.895,880.146,895.932,881.891,909.244z"/>
	<path fill="#494948" d="M261.122,432.042c61.523,14.33,123.012-23.934,137.344-85.457c14.324-61.523-23.939-123.006-85.463-137.326   c-61.523-14.332-123.016,23.934-137.34,85.445C161.335,356.228,199.601,417.72,261.122,432.042z"/>
	<path fill="#494948" d="M133.058,906.824c10.965,27.376,35.826,100.69,35.727,200.245c-0.021,64.029-10.07,138.97-40.475,221.154   c-12.191,32.916,4.613,69.492,37.529,81.678c7.271,2.691,14.729,3.973,22.053,3.973c25.836,0,50.121-15.865,59.621-41.512   c36.068-97.354,48.414-187.906,48.395-265.293c-0.07-69.691-9.883-128.651-21.143-173.451c-0.209,0.209-0.389,0.438-0.607,0.646   c-9.539,9.255-22.111,14.34-35.402,14.34c-13.885,0-26.844-5.482-36.508-15.453c-80.908-82.879-97.512-171.102-97.195-230.499   c0.447-94.265,38.375-165.854,54.656-192.255l0.604-1.004l0.141-0.238l0.238-0.367c9.439-14.33,25.338-22.891,42.51-22.891   c9.932,0,19.584,2.89,27.91,8.371c11.352,7.464,19.104,18.904,21.85,32.201c2.746,13.303,0.15,26.879-7.314,38.221l-0.953,1.539   c-0.914,1.529-2.379,4.043-4.186,7.389c-3.391,6.285-8.547,16.555-13.729,29.594c-9.164,22.981-20.078,58.883-20.037,99.48   c0.348,47.188,13.629,88.342,41.219,126.949c-9.633-85.885,14.076-184.539,27.652-253.889   c14.594-50.607-4.494-111.178-47.898-121.992c-43.408-10.824-106.33,12.752-131.928,87.205   C61.183,643.542,53.743,710.31,66.892,823.265C76.991,875.224,103.284,897.569,133.058,906.824z"/>
	<path fill="#494948" d="M217.331,599.454c5.225-13.148,10.453-23.676,14.238-30.688c1.896-3.5,3.426-6.133,4.418-7.781   c0.496-0.824,0.855-1.4,1.053-1.717c0.045-0.07,0.076-0.125,0.104-0.17l0.006,0.01c12.346-18.77,7.141-43.994-11.625-56.348   c-18.77-12.344-43.994-7.141-56.34,11.629h-0.008c-1.898,3.486-53.443,80.436-53.961,188.308   c-0.367,68.817,23.344,150.653,94.34,223.374c7.975,8.232,18.58,12.363,29.207,12.363c10.199,0,20.408-3.809,28.303-11.469   c16.129-15.643,16.527-41.394,0.895-57.521c-56.01-58.256-71.006-115.121-71.383-166.747   C196.538,662.491,206.835,625.776,217.331,599.454z"/>

</g>

</svg>