<svg xmlns="http://www.w3.org/2000/svg" xmlns:xlink="http://www.w3.org/1999/xlink" version="1.1" id="Layer_1" x="0px" y="0px" width="1520px" height="1384px" viewBox="0 0 1520 1384" enable-background="new 0 0 1520 1384" xml:space="preserve">

<g>
	<g>
		<path fill="#494948" d="M274.585,745.869c-0.826,4.152-31.031,160.861-31.031,494.414c0,34.371,27.867,62.238,62.227,62.238    c34.367,0,62.234-27.867,62.234-62.238c0-168.697,7.896-289.859,15.414-366.973c13.701,1.455,27.393,2.91,41.086,4.377    c16.961,88.328,57.393,218.215,149.924,391.855c11.195,21.021,32.713,32.988,54.969,32.979c9.871,0,19.891-2.355,29.207-7.32    c30.33-16.158,41.826-53.834,25.668-84.168c-86.66-162.781-118.725-269.812-145.156-338.533    c4.982-0.467-59.801-60.453,99.119-333.037c17.184-29.479-0.113-52.533-1.518-54.014c-4.105-4.219-8.918-7.295-14.059-9.297    c-47.994-33.453-95.982-66.906-143.979-100.354c-2.369-1.688-4.961-2.922-7.66-3.803c-0.521-6.826-0.854-13.898-0.854-21.209    c0-34.164,6.66-71.529,26.928-104.291c20.443-32.678,54.168-63.172,117.883-84.074c42.408-13.773,52.492-20.777,124.578-20.752    c21.998,0,36.121-16.773,36.121-38.77c0-21.998-20.262-35.24-44.049-35.24c-117.652,0-149.416,13.867-211.127,49.793    c-61.773,35.738-97.766,86.883-114.729,137.211c-11.502,33.57-15.24,66.646-15.25,96.123c0.061,31.688,4.316,59.342,8.766,79.779    c-53.699,92.639-93.434,192.621-117.826,296.725C278.282,732.939,275.901,739.16,274.585,745.869z"/>
		<path fill="#494948" d="M599.831,424.559c-60.271-13.846-97.906-73.936-84.059-134.211c13.846-60.277,73.939-97.91,134.213-84.066    c60.268,13.846,97.912,73.941,84.068,134.213C720.208,400.781,660.118,438.414,599.831,424.559z"/>
	</g>
	<path fill="#929292" stroke="#FFFFFF" stroke-width="8.8313" d="M1423.016,778.104c-23.722-4.254-140.094-32.635-184.323,1.342   c-25.119,19.301-51.374,57.688-63.346,85.396H80.183v456.871h1360.898V869.266C1454.3,833.881,1440.825,781.289,1423.016,778.104z"/>
	<g>
		<path fill="#010302" d="M774.201,762.189c6.279,37.043-35.34,74.984-92.958,84.758c-57.617,9.773-109.418-12.334-115.697-49.377    c-6.286-37.043,35.334-74.984,92.951-84.758C716.115,703.039,767.916,725.146,774.201,762.189z"/>
		<g>
			<path fill="#010302" d="M701.297,908.002c3.376-0.115,6.687-0.516,9.923-1.121c3.249-0.215,6.606-0.465,10.15-0.801     c89.9-15.428,196.309,6.238,270.379,17.939c52.857,13.172,114.719-8.852,124.259-54.115c7.585-36.041-7.846-84.01-53.73-113.996     c18.693,39.748,23.324,72.943,24.405,84.797l0.017,0.174l0.061,0.695l0.065,1.322c1.172,28.24-20.831,52.754-49.062,54.621     c-28.839,1.906-53.873-19.941-55.911-48.725l-0.248-1.943c-0.305-2.137-0.872-5.652-1.932-10.312     c-1.953-8.678-5.837-22.24-13.25-37.584c-19.689-40.178-50.523-69.727-94.218-90.293c-0.261-0.125-0.547-0.219-0.812-0.344     c-43.259-2.332-87.96,0.883-143.335,9.396c-26.061,6.066-44.66,15.873-57.859,27.939c-1.748-1.391-147.122,36.395-146.744,36.916     l-303.121,10.377c-36.268,1.238-64.674,31.656-63.445,67.938c0.011,0.164,0.017,0.328,0.027,0.482     c1.492,36.047,31.803,64.186,67.91,62.963L701.297,908.002z"/>
		</g>
		<path fill="#010302" d="M1091.361,741.637c6.187,65.027,63.922,112.723,128.943,106.537    c65.039-6.186,112.738-63.922,106.548-128.938c-6.186-65.037-63.922-112.742-128.95-106.557    C1132.875,618.875,1085.172,676.611,1091.361,741.637z"/>
	</g>

	
		<ellipse transform="matrix(0.9836 0.1804 -0.1804 0.9836 157.6851 -157.0779)" fill="#010302" cx="942.409" cy="788.366" rx="157.553" ry="79.509"/>
	<ellipse fill="#010302" cx="1026.455" cy="859.555" rx="79.508" ry="43.506"/>
	<path fill="#010302" d="M1063.213,802.906c-2.93-3.977-5.05-7.182-6.373-9.234c-0.646-1.025-1.091-1.779-1.354-2.191   c-0.039-0.084-0.076-0.158-0.121-0.209h0.007c-10.126-18.129-33.03-24.643-51.149-14.525   c-18.146,10.119-24.65,33.014-14.531,51.156l-0.007-0.004c1.822,2.973,28.763,51.451,87.888,90.842   c6.864,4.551,14.193,8.955,21.951,13.121c12.447,6.682,26.036,12.75,40.74,17.777c15.601,5.33,32.447,9.506,50.527,11.973   c45.752,6.33,98.913,1.674,157.834-19.779c1.651-0.6,3.242-1.307,4.758-2.102c16.344-8.619,24.236-28.203,17.753-46.061   c-1.905-5.242-4.874-9.773-8.547-13.498c-9.989-10.166-25.341-14.201-39.636-9.016c-48.854,17.684-88.742,20.469-121.939,15.959   c-38.533-5.291-68.979-20.91-92.229-38.398c-6.68-5.012-12.801-10.189-18.305-15.316   C1078.23,821.965,1069.103,810.879,1063.213,802.906z"/>

</g>
</svg>