<svg xmlns="http://www.w3.org/2000/svg" xmlns:xlink="http://www.w3.org/1999/xlink" version="1.1" id="Layer_1" x="0px" y="0px" width="1520px" height="1384px" viewBox="0 0 1520 1384" enable-background="new 0 0 1520 1384" xml:space="preserve">

<g>
	<path fill="#929292" stroke="#FFFFFF" stroke-width="8.8313" d="M1419.206,716.879c-23.722-4.254-140.094-32.635-184.323,1.342   c-25.119,19.301-51.374,57.688-63.346,85.396H76.373v456.871h1360.898V808.041C1450.49,772.656,1437.016,720.064,1419.206,716.879z   "/>
	<path fill="#010302" d="M202.492,617.996c-28.546-12.367-62.503,0.982-76.678,30.553c-14.176,29.568-3.319,64.406,24.199,78.914   l-0.063,0.137l279.058,138.209l53.386-104.898L202.536,617.904L202.492,617.996z"/>
	<g>
		<path d="M702.456,572.058c4.152-1.65,7.949-3.93,11.354-6.66c12.672-10.166,19.709-27.086,16.994-45.168    c-4.035-26.992-28.193-46.283-53.965-43.109l-0.025,0.008c-3.092,0.447-53.902,5.061-107.473-10.094    c-20.617-5.754-41.451-14.277-60.641-26.312c-5.785-3.637-11.418-7.545-16.848-11.85c-2.004-1.598-3.965-3.311-5.938-5.004    c-20.936-18.074-39.059-41.488-52.506-75.188c-8.549-21.559-15.092-47.467-18.273-78.918    c-2.736-26.959-25.701-47.354-51.445-45.83c-0.16,0.004-0.318-0.012-0.479,0.004c-25.934,1.816-44.711,25.266-41.965,52.365    c4.02,39.955,12.652,75.537,25.082,106.893c21.895,55.545,56.166,97.293,93.855,125.979c0.609,0.463,1.209,0.865,1.824,1.316    c24.891,18.662,50.809,32.035,76.104,41.635c26.672,10.123,52.58,16.062,75.773,19.609c4.471,0.684,8.887,1.326,13.139,1.84    c17,2.016,32.203,2.783,44.924,2.938c23.135,0.275,37.957-1.484,39.547-1.67C695.335,574.369,699.015,573.416,702.456,572.058"/>
		<path stroke="#FFFFFF" stroke-width="27.1492" stroke-miterlimit="10" d="M702.456,572.058c4.152-1.65,7.949-3.93,11.354-6.66    c12.672-10.166,19.709-27.086,16.994-45.168c-4.035-26.992-28.193-46.283-53.965-43.109l-0.025,0.008    c-3.092,0.447-53.902,5.061-107.473-10.094c-20.617-5.754-41.451-14.277-60.641-26.312c-5.785-3.637-11.418-7.545-16.848-11.85    c-2.004-1.598-3.965-3.311-5.938-5.004c-20.936-18.074-39.059-41.488-52.506-75.188c-8.549-21.559-15.092-47.467-18.273-78.918    c-2.736-26.959-25.701-47.354-51.445-45.83c-0.16,0.004-0.318-0.012-0.479,0.004c-25.934,1.816-44.711,25.266-41.965,52.365    c4.02,39.955,12.652,75.537,25.082,106.893c21.895,55.545,56.166,97.293,93.855,125.979c0.609,0.463,1.209,0.865,1.824,1.316    c24.891,18.662,50.809,32.035,76.104,41.635c26.672,10.123,52.58,16.062,75.773,19.609c4.471,0.684,8.887,1.326,13.139,1.84    c17,2.016,32.203,2.783,44.924,2.938c23.135,0.275,37.957-1.484,39.547-1.67C695.335,574.369,699.015,573.416,702.456,572.058z"/>
		<path fill="#494948" d="M702.462,572.046c4.146-1.643,7.943-3.912,11.348-6.66c12.672-10.17,19.719-27.074,17-45.17    c-4.035-26.984-28.199-46.283-53.959-43.113l-0.037,0.012c-3.082,0.467-53.912,5.057-107.469-10.086    c-20.615-5.758-41.445-14.277-60.641-26.316c-5.779-3.633-11.422-7.545-16.852-11.846c-2.004-1.596-3.965-3.309-5.934-5.004    c-20.934-18.068-39.053-41.494-52.51-75.195c-8.549-21.562-15.086-47.459-18.268-78.91c-2.732-26.959-25.703-47.352-51.451-45.824    c-0.154,0.004-0.318-0.012-0.482,0.004c-25.93,1.807-44.707,25.254-41.955,52.365c4.025,39.951,12.646,75.531,25.086,106.885    c21.891,55.553,56.15,97.289,93.84,125.971c0.605,0.467,1.227,0.875,1.83,1.332c24.896,18.65,50.82,32.021,76.098,41.625    c26.678,10.133,52.586,16.072,75.779,19.619c4.475,0.684,8.877,1.32,13.139,1.846c16.99,2.004,32.209,2.773,44.93,2.922    c23.141,0.297,37.951-1.48,39.541-1.654C695.351,574.365,699.015,573.416,702.462,572.046"/>
	</g>
	<path fill="#494948" d="M659.288,447.507c71.404,16.629,142.777-27.785,159.406-99.201c16.628-71.414-27.787-142.793-99.191-159.41   c-71.41-16.641-142.799,27.773-159.428,99.189C543.446,359.5,587.862,430.884,659.288,447.507"/>
	<g>
		<path fill="#494948" d="M850.9,482.113c-0.629-0.574-1.033-0.959-1.224-1.15c-0.022-0.016-0.044-0.035-0.055-0.061    c-0.039-0.029-0.065-0.047-0.076-0.055c-7.362-7.342-16.408-11.785-25.819-13.395c-3.616-0.916-7.38-1.461-11.274-1.461H577.555    c-3.899,0-7.657,0.545-11.273,1.461c-9.417,1.609-18.462,6.053-25.819,13.395h-0.005c-0.022,0.008-0.061,0.055-0.132,0.131    c-0.021,0.023-0.055,0.047-0.086,0.078v0.004c-0.368,0.354-2.396,71.158-4.5,148.327h319.334    C853.271,552.775,851.469,482.628,850.9,482.113z"/>
		<path fill="#494948" d="M535.762,717.254v507.59c0,40.299,32.675,72.969,72.969,72.969c40.3,0,72.975-32.67,72.975-72.969V762.855    h27.361v461.988c0,40.299,32.674,72.969,72.975,72.969c40.299,0,72.969-32.67,72.969-72.969v-507.59V614.041H535.762V717.254z"/>
	</g>
	<path fill="#494948" d="M685.875,910.641c-1.412-38.688-33.205-69.611-72.224-69.611c-39.02,0-70.815,30.924-72.228,69.611h-0.177   v291.582l138.965,12.881l5.785-304.463H685.875z"/>
	<path fill="#494948" d="M853.874,940.643c-1.412-38.686-33.205-69.609-72.224-69.609c-39.02,0-70.815,30.924-72.228,69.609h-0.177   v291.584h144.75V940.643H853.874z"/>
	
	<g>
		<path fill="#010302" d="M638.835,863.131c3.516-0.213,6.953-0.727,10.308-1.455c3.381-0.311,6.87-0.67,10.554-1.125    c93.229-18.639,204.718,0.902,282.228,10.982c55.451,12.209,119.278-12.506,127.925-59.934    c6.875-37.77-10.573-87.311-59.239-117.248c20.613,40.887,26.387,75.342,27.853,87.654l0.021,0.182l0.083,0.729l0.105,1.371    c2.028,29.391-20.197,55.561-49.557,58.316c-29.996,2.807-56.702-19.238-59.648-49.17l-0.312-2.018    c-0.379-2.221-1.071-5.867-2.309-10.689c-2.282-8.986-6.718-23.014-14.879-38.787c-21.662-41.295-54.631-71.209-100.745-91.387    c-0.277-0.123-0.578-0.217-0.858-0.338c-45.14-1.195-91.623,3.434-149.076,13.887c-26.98,7.059-46.08,17.807-59.489,30.762    c-1.861-1.402-152.251,42.121-151.844,42.648l-315.536,19.471c-37.753,2.32-66.481,34.83-64.166,72.592    c0.016,0.172,0.026,0.342,0.042,0.508c2.585,37.516,34.97,65.969,72.556,63.664L638.835,863.131z"/>
	</g>
	<path fill="#010302" d="M1089.724,753.613c5.676,67.85,65.287,118.24,133.131,112.564c67.857-5.682,118.256-65.287,112.575-133.129   c-5.677-67.855-65.29-118.258-133.138-112.588C1134.444,626.148,1084.04,685.76,1089.724,753.613z"/>

	<path fill="#494948" stroke="#FFFFFF" stroke-width="8.1083" d="M682.012,898.045h-0.122c-1.412-39.74-33.205-71.508-72.224-71.508   c-39.02,0-70.815,31.768-72.228,71.508h-0.177v26.076h-0.465v299.533h0.122c1.412,39.742,33.205,71.508,72.224,71.508   c39.02,0,70.815-31.766,72.228-71.508h0.177v-26.076h0.465V898.045z"/>
	<path fill="#494948" stroke="#FFFFFF" stroke-width="8.2322" d="M852.012,899.055h-0.122   c-1.412-40.965-33.205-73.711-72.224-73.711c-39.02,0-70.815,32.746-72.228,73.711h-0.177v26.877h-0.465v308.752h0.122   c1.412,40.965,33.205,73.709,72.224,73.709c39.02,0,70.815-32.744,72.228-73.709h0.177v-26.877h0.465V899.055z"/>
	
	
		<ellipse transform="matrix(0.9932 0.1167 -0.1167 0.9932 95.4578 -105.5389)" fill="#010302" cx="949.216" cy="762.608" rx="126.012" ry="94.51"/>
	<path fill="#010302" d="M960.243,668.744l42.979,74.363l-54.005,19.502l-168.018-28.504c0,0-87.008-3-33.003-48.004   S896.263,645.387,960.243,668.744z"/>
	<path fill="#494948" stroke="#FFFFFF" stroke-width="10" d="M843.245,461.234c-2.564-2.934-5.529-5.412-8.787-7.42   c-12.066-7.514-28.051-8.414-42.181-0.928c-21.077,11.15-29.989,36.674-19.91,56.996l0.016,0.02   c1.291,2.398,19.803,42.992,22.833,91.543c1.237,18.672,0.238,38.32-4.12,57.637c-1.322,5.826-2.914,11.605-4.889,17.326   c-0.737,2.127-1.576,4.246-2.408,6.348c-8.841,22.514-22.896,44.229-46.785,65.105c-15.305,13.291-34.762,26.186-59.784,37.93   c-21.438,10.061-31.6,34.918-22.866,55.717c0.045,0.123,0.071,0.258,0.134,0.387c9.016,20.859,33.788,29.553,55.341,19.434   c31.789-14.904,58.631-32.33,80.878-51.674c39.469-34.152,63.957-74.508,76.696-113.891c0.192-0.646,0.354-1.27,0.559-1.9   c8.16-25.941,11.683-51.189,12.264-74.818c0.615-24.939-1.992-48.02-5.779-68.172c-0.738-3.895-1.483-7.711-2.293-11.375   c-3.271-14.6-7.042-27.369-10.61-37.896c-6.472-19.164-12.227-30.871-12.828-32.137   C847.213,466.433,845.369,463.681,843.245,461.234"/>
	<path fill="#010302" stroke="#FFFFFF" stroke-width="8.7565" d="M1214.296,963.527c-12.479,7.758-26.702,11.652-40.12,11.693   c-30.73-0.213-54.524-15.623-74.47-32.367c-29.854-25.766-53.705-59.27-71.666-86.934c-17.771-27.604-28.926-49.344-29.445-50.32   c-11.772-22.939-4.982-51.928,15.162-64.742c20.154-12.822,46.03-4.611,57.798,18.334c0,0,0.121,0.238,0.589,1.127   c3.447,6.605,22.115,40.908,45.182,71.17c11.441,15.113,24.053,29.107,34.828,37.805c10.853,9.074,18.927,11.141,19.743,10.764   c0.585-0.08,0.068,0.104,0.782-0.246c0.879-0.494,5.308-3.85,11.063-15.846c5.728-11.803,12.187-31.48,17.539-59.715   c4.862-25.604,27.317-41.494,50.142-35.498c19.464,5.104,32.914,24.473,33.428,45.926c0.088,3.705-0.209,7.471-0.928,11.238   c-8.805,45.574-20.23,79.494-37.681,105.789C1237.478,944.752,1226.836,955.818,1214.296,963.527z"/>
</g>

</svg>