<svg xmlns="http://www.w3.org/2000/svg" xmlns:xlink="http://www.w3.org/1999/xlink" version="1.1" id="Layer_1" x="0px" y="0px" width="1128px" height="1272px" viewBox="0 0 1128 1272" enable-background="new 0 0 1128 1272" xml:space="preserve">

<g>
	<path d="M557.491,441.887c4.152-1.65,7.949-3.93,11.354-6.66c12.672-10.166,19.709-27.086,16.994-45.168   c-4.035-26.992-28.193-46.283-53.965-43.109l-0.025,0.008c-3.092,0.447-53.902,5.061-107.473-10.094   c-20.617-5.754-41.451-14.277-60.641-26.312c-5.785-3.637-11.418-7.545-16.848-11.85c-2.004-1.598-3.965-3.311-5.938-5.004   c-20.936-18.074-39.059-41.488-52.506-75.188c-8.549-21.559-15.092-47.467-18.273-78.918c-2.736-26.959-25.701-47.354-51.445-45.83   c-0.16,0.004-0.318-0.012-0.479,0.004c-25.934,1.816-44.711,25.266-41.965,52.365c4.02,39.955,12.652,75.537,25.082,106.893   c21.895,55.545,56.166,97.293,93.855,125.979c0.609,0.463,1.209,0.865,1.824,1.316c24.891,18.662,50.809,32.035,76.104,41.635   c26.672,10.123,52.58,16.062,75.773,19.609c4.471,0.684,8.887,1.326,13.139,1.84c17,2.016,32.203,2.783,44.924,2.938   c23.135,0.275,37.957-1.484,39.547-1.67C550.37,444.197,554.05,443.244,557.491,441.887"/>
	<path stroke="#FFFFFF" stroke-width="27.1492" stroke-miterlimit="10" d="M557.491,441.887c4.152-1.65,7.949-3.93,11.354-6.66   c12.672-10.166,19.709-27.086,16.994-45.168c-4.035-26.992-28.193-46.283-53.965-43.109l-0.025,0.008   c-3.092,0.447-53.902,5.061-107.473-10.094c-20.617-5.754-41.451-14.277-60.641-26.312c-5.785-3.637-11.418-7.545-16.848-11.85   c-2.004-1.598-3.965-3.311-5.938-5.004c-20.936-18.074-39.059-41.488-52.506-75.188c-8.549-21.559-15.092-47.467-18.273-78.918   c-2.736-26.959-25.701-47.354-51.445-45.83c-0.16,0.004-0.318-0.012-0.479,0.004c-25.934,1.816-44.711,25.266-41.965,52.365   c4.02,39.955,12.652,75.537,25.082,106.893c21.895,55.545,56.166,97.293,93.855,125.979c0.609,0.463,1.209,0.865,1.824,1.316   c24.891,18.662,50.809,32.035,76.104,41.635c26.672,10.123,52.58,16.062,75.773,19.609c4.471,0.684,8.887,1.326,13.139,1.84   c17,2.016,32.203,2.783,44.924,2.938c23.135,0.275,37.957-1.484,39.547-1.67C550.37,444.197,554.05,443.244,557.491,441.887z"/>
	<path fill="#494948" d="M557.497,441.875c4.146-1.643,7.943-3.912,11.348-6.66c12.672-10.17,19.719-27.074,17-45.17   c-4.035-26.984-28.199-46.283-53.959-43.113l-0.037,0.012c-3.082,0.467-53.912,5.057-107.469-10.086   c-20.615-5.758-41.445-14.277-60.641-26.316c-5.779-3.633-11.422-7.545-16.852-11.846c-2.004-1.596-3.965-3.309-5.934-5.004   c-20.934-18.068-39.053-41.494-52.51-75.195c-8.549-21.562-15.086-47.459-18.268-78.91c-2.732-26.959-25.703-47.352-51.451-45.824   c-0.154,0.004-0.318-0.012-0.482,0.004c-25.93,1.807-44.707,25.254-41.955,52.365c4.025,39.951,12.646,75.531,25.086,106.885   c21.891,55.553,56.15,97.289,93.84,125.971c0.605,0.467,1.227,0.875,1.83,1.332c24.896,18.65,50.82,32.021,76.098,41.625   c26.678,10.133,52.586,16.072,75.779,19.619c4.475,0.684,8.877,1.32,13.139,1.846c16.99,2.004,32.209,2.773,44.93,2.922   c23.141,0.297,37.951-1.48,39.541-1.654C550.386,444.193,554.05,443.244,557.497,441.875"/>
</g>
<path fill="#494948" d="M514.323,317.338c71.404,16.629,142.777-27.785,159.406-99.201c16.628-71.414-27.787-142.793-99.191-159.41  C503.128,42.086,431.739,86.5,415.11,157.916C398.481,229.33,442.897,300.715,514.323,317.338"/>
<g>
	<path fill="#494948" d="M705.936,351.943c-0.629-0.574-1.033-0.959-1.224-1.15c-0.022-0.016-0.044-0.035-0.055-0.061   c-0.039-0.031-0.065-0.047-0.076-0.055c-7.362-7.342-16.408-11.785-25.819-13.396c-3.616-0.914-7.38-1.459-11.274-1.459H432.59   c-3.899,0-7.657,0.545-11.273,1.459c-9.417,1.611-18.462,6.055-25.819,13.396h-0.005c-0.022,0.008-0.061,0.055-0.132,0.129   c-0.021,0.025-0.055,0.049-0.086,0.08v0.004c-0.368,0.354-2.396,71.156-4.5,148.326h319.334   C708.306,422.605,706.504,352.459,705.936,351.943z"/>
	<path fill="#494948" d="M390.797,587.084v507.59c0,40.299,32.675,72.969,72.969,72.969c40.3,0,72.975-32.67,72.975-72.969V632.686   h27.361v461.988c0,40.299,32.674,72.969,72.975,72.969c40.299,0,72.969-32.67,72.969-72.969v-507.59V483.871H390.797V587.084z"/>
</g>

<ellipse fill="#FFFFFF" cx="707.764" cy="750.4" rx="28.503" ry="31.502"/>
<g>
	<path d="M916.574,1006.605c67.184,12.658,131.901-31.549,144.538-98.707c12.668-67.184-31.529-131.912-98.713-144.568   c-67.174-12.646-131.886,31.561-144.538,98.723C805.199,929.236,849.401,993.949,916.574,1006.605"/>
	<path d="M114.379,1182.439c9.587,0,19.322-2.004,28.612-6.271c152.561-69.635,235.98-184.998,278.264-279.973   c12.637-28.252,21.938-54.801,28.799-78.365c78.589-6.062,164.199,8.844,230.089,19.242c0-0.795-0.053-1.58-0.053-2.375   c0.011-43.885,6.883-73.064,8.262-78.457c6.331-24.312,28.21-41.238,53.237-41.238c4.666,0,9.344,0.604,13.888,1.791   c14.228,3.701,26.147,12.717,33.603,25.395c7.424,12.668,9.48,27.494,5.779,41.695c-0.074,0.301-0.19,0.9-0.371,1.775   c-0.424,2.062-1.049,5.35-1.676,9.73c-1.061,7.227-2.258,18.326-2.598,32.219c18.156-10.488,31.465-25.941,35.453-45.475   c9.698-47.428-18.687-114.377-100.346-138.621c-112.5-32.68-185.029-37.648-306.564-18.23   c-79.708,19.047-92.396,71.15-91.957,118.279c-5.122,25.336-15.123,62.699-34.201,103.156   c-34.064,71.818-93.463,152.17-206.896,204.4c-34.541,15.828-49.706,56.637-33.895,91.182   C63.378,1167.545,88.312,1182.439,114.379,1182.439"/>
	<path d="M781.91,793.818c0.679-4.691,1.347-8.207,1.803-10.371c0.223-1.088,0.376-1.834,0.487-2.238l0.017-0.084   c6.108-23.527-7.991-47.574-31.514-53.684c-23.522-6.119-47.563,7.975-53.688,31.498c-0.705,2.752-7.916,31.285-7.928,75.746   c0,1.336,0.021,2.73,0.032,4.09c0.403,40.234,6.835,92.811,29.515,149.955c23.342,59.045,64.288,122.629,131.652,180.555   c8.304,7.162,18.537,10.678,28.708,10.678c12.365,0,24.657-5.189,33.358-15.297c15.86-18.422,13.797-46.217-4.624-62.078   c-56.657-48.879-88.669-99.598-107.266-146.309c-18.527-46.689-23.342-89.65-23.342-121.594c0-0.529,0.011-1.027,0.011-1.543   C779.216,816.461,780.605,802.912,781.91,793.818"/>
</g>
<path fill="#494948" d="M540.91,780.469c-1.412-38.686-33.205-69.609-72.224-69.609c-39.02,0-70.815,30.924-72.228,69.609h-0.177  v291.584l138.965,12.881l5.785-304.465H540.91z"/>
<path fill="#494948" d="M708.909,810.473c-1.412-38.688-33.205-69.611-72.224-69.611c-39.02,0-70.815,30.924-72.228,69.611h-0.177  v291.584h144.75V810.473H708.909z"/>
<g>
	<path fill="#494948" d="M3589.726-5570.344c-8.599,42.318,18.232,84.307,61.122,94.686c42.89,10.383,85.954-14.688,97.658-56.258   l0.195,0.045l106.91-418.885l-152.99-41.018l-113.028,421.396L3589.726-5570.344z"/>
	<g>
		<path d="M3697.79-6175.481c4.152-1.65,7.949-3.93,11.354-6.66c12.672-10.166,19.709-27.086,16.994-45.168    c-4.035-26.992-28.193-46.283-53.965-43.109l-0.025,0.008c-3.092,0.447-53.902,5.061-107.473-10.094    c-20.617-5.754-41.451-14.277-60.641-26.312c-5.785-3.637-11.418-7.545-16.848-11.85c-2.004-1.598-3.965-3.311-5.938-5.004    c-20.936-18.074-39.059-41.488-52.506-75.188c-8.549-21.559-15.092-47.467-18.273-78.918    c-2.736-26.959-25.701-47.354-51.445-45.83c-0.16,0.004-0.318-0.012-0.479,0.004c-25.934,1.816-44.711,25.266-41.965,52.365    c4.02,39.955,12.652,75.537,25.082,106.893c21.895,55.545,56.166,97.293,93.855,125.979c0.609,0.463,1.209,0.865,1.824,1.316    c24.891,18.662,50.809,32.035,76.104,41.635c26.672,10.123,52.58,16.062,75.773,19.609c4.471,0.684,8.887,1.326,13.139,1.84    c17,2.016,32.203,2.783,44.924,2.938c23.135,0.275,37.957-1.484,39.547-1.67C3690.669-6173.17,3694.349-6174.124,3697.79-6175.481    "/>
		<path stroke="#FFFFFF" stroke-width="27.1492" stroke-miterlimit="10" d="M3697.79-6175.481c4.152-1.65,7.949-3.93,11.354-6.66    c12.672-10.166,19.709-27.086,16.994-45.168c-4.035-26.992-28.193-46.283-53.965-43.109l-0.025,0.008    c-3.092,0.447-53.902,5.061-107.473-10.094c-20.617-5.754-41.451-14.277-60.641-26.312c-5.785-3.637-11.418-7.545-16.848-11.85    c-2.004-1.598-3.965-3.311-5.938-5.004c-20.936-18.074-39.059-41.488-52.506-75.188c-8.549-21.559-15.092-47.467-18.273-78.918    c-2.736-26.959-25.701-47.354-51.445-45.83c-0.16,0.004-0.318-0.012-0.479,0.004c-25.934,1.816-44.711,25.266-41.965,52.365    c4.02,39.955,12.652,75.537,25.082,106.893c21.895,55.545,56.166,97.293,93.855,125.979c0.609,0.463,1.209,0.865,1.824,1.316    c24.891,18.662,50.809,32.035,76.104,41.635c26.672,10.123,52.58,16.062,75.773,19.609c4.471,0.684,8.887,1.326,13.139,1.84    c17,2.016,32.203,2.783,44.924,2.938c23.135,0.275,37.957-1.484,39.547-1.67C3690.669-6173.17,3694.349-6174.124,3697.79-6175.481    z"/>
		<path fill="#494948" d="M3697.796-6175.493c4.146-1.643,7.943-3.912,11.348-6.66c12.672-10.17,19.719-27.074,17-45.17    c-4.035-26.984-28.199-46.283-53.959-43.113l-0.037,0.012c-3.082,0.467-53.912,5.057-107.469-10.086    c-20.615-5.758-41.445-14.277-60.641-26.316c-5.779-3.633-11.422-7.545-16.852-11.846c-2.004-1.596-3.965-3.309-5.934-5.004    c-20.934-18.068-39.053-41.494-52.51-75.195c-8.549-21.562-15.086-47.459-18.268-78.91c-2.732-26.959-25.703-47.352-51.451-45.824    c-0.154,0.004-0.318-0.012-0.482,0.004c-25.93,1.807-44.707,25.254-41.955,52.365c4.025,39.951,12.646,75.531,25.086,106.885    c21.891,55.553,56.15,97.289,93.84,125.971c0.605,0.467,1.227,0.875,1.83,1.332c24.896,18.65,50.82,32.021,76.098,41.625    c26.678,10.133,52.586,16.072,75.779,19.619c4.475,0.684,8.877,1.32,13.139,1.846c16.99,2.004,32.209,2.773,44.93,2.922    c23.141,0.297,37.951-1.48,39.541-1.654C3690.685-6173.174,3694.349-6174.124,3697.796-6175.493"/>
	</g>
	<path fill="#494948" d="M3654.622-6300.032c71.404,16.629,142.777-27.785,159.406-99.201   c16.628-71.414-27.787-142.793-99.191-159.41c-71.41-16.641-142.799,27.773-159.428,99.189   C3538.78-6388.04,3583.196-6316.655,3654.622-6300.032"/>
	<g>
		<path fill="#494948" d="M3846.234-6265.426c-0.629-0.574-1.033-0.959-1.224-1.15c-0.022-0.016-0.044-0.035-0.055-0.061    c-0.039-0.029-0.065-0.047-0.076-0.055c-7.362-7.342-16.408-11.785-25.819-13.395c-3.616-0.916-7.38-1.461-11.274-1.461h-234.897    c-3.899,0-7.657,0.545-11.273,1.461c-9.417,1.609-18.462,6.053-25.819,13.395h-0.005c-0.022,0.008-0.061,0.055-0.132,0.131    c-0.021,0.023-0.055,0.047-0.086,0.078v0.004c-0.368,0.354-2.396,71.158-4.5,148.326h319.334    C3848.604-6194.764,3846.803-6264.911,3846.234-6265.426z"/>
		<path fill="#494948" d="M3531.096-6030.286l145.943,45.602h27.361v461.988c0,40.299,145.943-507.59,145.943-507.59v-103.213    h-319.248V-6030.286z"/>
	</g>
	<g>
		<polygon points="3393.022,-5986.292 3401.771,-6019.815 3457.485,-5974.149 3459.708,-5977.303 3399.853,-6040.711     3387.831,-6003.954 3337.397,-6043.719 3328.235,-6029.524   "/>
		<polygon points="3461.075,-6055.512 3480.6,-5993.684 3483.336,-5995.168 3468.006,-6073.01 3445.443,-6049.297 3427.14,-6104.02     3415.399,-6096.924 3441.981,-6032.879   "/>
		<polygon points="3451.149,-5941.85 3381.728,-5962.807 3384.411,-5932.379 3330.511,-5940.477 3327.928,-5926.961     3394.534,-5922.055 3390.292,-5948.934 3450.428,-5938.78   "/>
	</g>
	<g>
		<path fill="#010302" d="M3886.907-5707.274c-47.477,49.439-45.876,128.006,3.567,175.486    c49.444,47.475,128.01,45.869,175.478-3.561c47.481-49.443,45.883-128.018-3.555-175.502    C4012.954-5758.311,3934.38-5756.721,3886.907-5707.274z"/>
		<path fill="#010302" d="M3432.494-5435.614c91.054-108.555,105.389-164.021,134.991-257.523    c15.291-48.338,24.494-92.537,29.92-130.852c27.149,38.096,50.725,77.441,71.095,110.822    c29.058-24.811,50.858-40.223,59.958-46.363l0.111-0.076l0.573-0.4c25.449-16.639,59.711-9.498,76.374,15.947    c9.122,13.926,11.464,31.031,6.426,46.922c-3.817,12.045-11.772,22.512-22.373,29.455l-0.992,0.688    c-0.791,0.52-2.175,1.49-4.035,2.805c-3.406,2.414-9.104,6.568-16.739,12.461c-5.733,4.445-12.966,10.244-21.255,17.197    c20.273,7.582,41.32,8.053,59.283-1.842c42.525-23.406,75.216-88.578,40.668-166.711    c-48.121-107.162-91.46-165.777-185.246-245.969c-73.042-53.414-123.889-18.725-160.539,16.123    c-17.463,16.602-29.49,29.68-31.312,44.596c-4.24,10.645-5.909,22.482-4.272,34.643c0.15,1.232,0.721,6.549,1.107,15.746    c1.346,31.707,0.13,107.383-30.244,203.125c-24.821,78.176-25.796,115.117-104.529,209.092    c-5.967,7.123-34.688,37.975-37.381,46.295c-13.139,40.609,9.26,63.854,31.33,82.346    C3354.597-5372.61,3408.022-5406.428,3432.494-5435.614z"/>
	</g>
	<path fill="#494948" d="M3560.776-5444.172c-7.585,37.967,19.242,76.275,61.096,86.404c41.853,10.131,83.232-11.67,93.848-48.904   l0.19,0.045l96.251-375.398l-149.365-39.729l-102.15,377.551L3560.776-5444.172z"/>
	
		<ellipse transform="matrix(0.708 0.7062 -0.7062 0.708 -2969.2847 -4331.5068)" fill="#010302" cx="3753.255" cy="-5756.376" rx="133.531" ry="93.89"/>
	<path fill="#494948" stroke="#FFFFFF" stroke-width="7" d="M3785.349-5705.571c9.402-42.043-13.983-85.215-53.305-97.385   c-39.322-12.172-80.018,11.166-92.268,52.33l-0.179-0.057l-23.44,95.516l70.678,122.766l60.705,22.727l11.561-50.033   l26.248-145.861l0.123,0.037L3785.349-5705.571z"/>
	<path fill="#010302" stroke="#FFFFFF" stroke-width="9.0948" d="M3849.989-5720.901c-0.592-5.582-0.83-9.945-0.948-12.719   c-0.048-1.375-0.05-2.371-0.071-2.928c0.01-0.105,0.016-0.197,0.002-0.273l0.006,0.004c0.479-23.604-18.254-43.148-41.841-43.627   c-23.616-0.496-43.146,18.232-43.637,41.844l-0.004-0.01c0.079,3.965-1.332,67,34.055,139.605c4.121,8.406,8.782,16.936,14,25.479   c8.376,13.703,18.223,27.461,29.761,40.838c12.245,14.191,26.377,27.963,42.696,40.768c41.253,32.486,96.085,58.451,166.214,71.242   c1.963,0.359,3.932,0.58,5.875,0.672c20.986,0.928,39.977-13.754,43.871-34.996c1.142-6.238,0.831-12.389-0.633-18.152   c-3.961-15.711-16.707-28.486-33.711-31.607c-58.086-10.711-98.82-30.887-128.801-54.377   c-34.767-27.32-55.666-60.131-68.434-90.643c-3.676-8.752-6.708-17.348-9.162-25.539   C3853.776-5693.575,3851.188-5709.696,3849.989-5720.901z"/>
	<path fill="#494948" stroke="#FFFFFF" stroke-width="8" d="M3792.14-5530.487l0.139-0.111l-145.205-181.377l-128.439-166.838   l-0.096,0.076c-25.279-29.318-69.426-33.59-99.885-9.203c-30.461,24.385-35.956,68.396-12.882,99.48l-0.138,0.111l145.206,181.379   l128.438,166.836l0.096-0.076c25.279,29.318,69.426,33.59,99.886,9.205C3809.72-5455.391,3815.215-5499.403,3792.14-5530.487z"/>
	<path fill="#494948" stroke="#FFFFFF" stroke-width="10" d="M3842.729-6279.387c-2.996-2.492-6.316-4.471-9.852-5.936   c-13.102-5.512-29.027-3.871-41.795,5.756c-19.048,14.346-23.809,40.957-10.641,59.43l0.018,0.016   c1.654,2.164,26.355,39.316,37.029,86.779c4.176,18.238,6.3,37.799,5.052,57.561c-0.384,5.961-1.041,11.92-2.087,17.881   c-0.391,2.217-0.884,4.441-1.372,6.648c-5.167,23.631-15.61,47.295-35.896,71.688c-13.008,15.545-30.182,31.355-53.029,46.912   c-19.576,13.326-25.678,39.477-13.764,58.633c0.064,0.113,0.111,0.244,0.194,0.361c12.202,19.17,38.038,23.834,57.718,10.432   c29.031-19.746,52.777-41.199,71.684-63.818c33.568-39.969,51.363-83.689,57.711-124.592c0.087-0.668,0.148-1.309,0.25-1.965   c3.953-26.904,3.438-52.393,0.271-75.816c-3.338-24.723-9.564-47.1-16.493-66.398c-1.345-3.729-2.685-7.379-4.063-10.869   c-5.539-13.898-11.284-25.91-16.473-35.74c-9.422-17.898-16.957-28.549-17.751-29.703   C3847.469-6274.883,3845.213-6277.309,3842.729-6279.387"/>
</g>
<path fill="#494948" stroke="#FFFFFF" stroke-width="8" d="M3647.346-7170.39h-0.122c-1.412-38.687-33.205-69.61-72.224-69.61  c-39.02,0-70.815,30.924-72.228,69.61h-0.177v25.384h-0.465v291.583h0.122c1.412,38.687,33.205,69.61,72.224,69.61  c39.02,0,70.815-30.923,72.228-69.61h0.177v-25.384h0.465V-7170.39z"/>
<path fill="#494948" stroke="#FFFFFF" stroke-width="8" d="M3823.346-7142.39h-0.122c-1.412-38.687-33.205-69.61-72.224-69.61  c-39.02,0-70.815,30.924-72.228,69.61h-0.177v25.384h-0.465v291.583h0.122c1.412,38.686,33.205,69.61,72.224,69.61  c39.02,0,70.815-30.924,72.228-69.61h0.177v-25.384h0.465V-7142.39z"/>
<path fill="#494948" stroke="#FFFFFF" stroke-width="8" d="M537.047,780.979h-0.122c-1.412-38.686-33.205-69.609-72.224-69.609  c-39.02,0-70.815,30.924-72.228,69.609h-0.177v25.385h-0.465v291.582h0.122c1.412,38.688,33.205,69.611,72.224,69.611  c39.02,0,70.815-30.924,72.228-69.611h0.177v-25.383h0.465V780.979z"/>
<path fill="#494948" stroke="#FFFFFF" stroke-width="7.8644" d="M707.047,804.639h-0.122c-1.412-37.386-33.205-67.27-72.224-67.27  c-39.02,0-70.815,29.884-72.228,67.27h-0.177v24.531h-0.465v281.781h0.122c1.412,37.387,33.205,67.271,72.224,67.271  c39.02,0,70.815-29.885,72.228-67.271h0.177v-24.529h0.465V804.639z"/>


<path fill="#494948" stroke="#FFFFFF" stroke-width="10" d="M702.43,337.98c-2.996-2.49-6.316-4.469-9.852-5.936  c-13.102-5.51-29.027-3.871-41.795,5.758c-19.048,14.346-23.809,40.955-10.641,59.428l0.018,0.016  c1.654,2.166,26.355,39.318,37.029,86.779c4.176,18.24,6.3,37.799,5.052,57.561c-0.384,5.963-1.041,11.922-2.087,17.883  c-0.391,2.217-0.884,4.441-1.372,6.648c-5.167,23.629-15.61,47.295-35.896,71.688c-13.008,15.545-30.182,31.355-53.029,46.91  c-19.576,13.328-25.678,39.479-13.764,58.635c0.064,0.113,0.111,0.244,0.194,0.359c12.202,19.17,38.038,23.836,57.718,10.432  c29.031-19.744,52.777-41.199,71.684-63.816c33.568-39.969,51.363-83.689,57.711-124.594c0.087-0.668,0.148-1.307,0.25-1.963  c3.953-26.904,3.438-52.395,0.271-75.816c-3.338-24.723-9.564-47.1-16.493-66.398c-1.345-3.729-2.685-7.381-4.063-10.871  c-5.539-13.896-11.284-25.908-16.473-35.738c-9.422-17.898-16.957-28.549-17.751-29.703  C707.17,342.486,704.914,340.061,702.43,337.98"/>

</svg>