<svg xmlns="http://www.w3.org/2000/svg" xmlns:xlink="http://www.w3.org/1999/xlink" version="1.1" id="Layer_1" x="0px" y="0px" width="1520px" height="1384px" viewBox="0 0 1520 1384" enable-background="new 0 0 1520 1384" xml:space="preserve">

<g>
	<g>
		<rect x="1082.144" y="58.439" fill="#929292" stroke="#FFFFFF" stroke-width="9.7158" width="298.01" height="1290.562"/>
	</g>
</g>
<path fill="#010302" d="M941.461,337.061c63.396,14.768,126.76-24.66,141.523-88.059c14.764-63.396-24.666-126.752-88.063-141.508  c-63.397-14.768-126.763,24.662-141.523,88.049C838.637,258.938,878.064,322.305,941.461,337.061z"/>
<path fill="#010302" d="M809.494,826.305c11.299,28.209,36.918,103.758,36.814,206.344c-0.017,65.98-10.374,143.203-41.702,227.891  c-12.565,33.918,4.75,71.607,38.671,84.164c7.49,2.775,15.176,4.094,22.724,4.094c26.622,0,51.648-16.348,61.433-42.775  c37.172-100.318,49.892-193.629,49.869-273.373c-0.072-71.812-10.18-132.57-21.787-178.734c-0.215,0.217-0.4,0.451-0.621,0.666  c-9.83,9.539-22.787,14.777-36.484,14.777c-14.307,0-27.66-5.648-37.619-15.924c-83.372-85.402-100.482-176.312-100.154-237.52  c0.463-97.135,39.541-170.904,56.32-198.109l0.623-1.035l0.146-0.246l0.245-0.377c9.724-14.766,26.108-23.588,43.803-23.588  c10.233,0,20.182,2.979,28.761,8.627c11.697,7.689,19.684,19.479,22.515,33.182c2.829,13.707,0.155,27.695-7.534,39.383  l-0.984,1.586c-0.942,1.576-2.453,4.164-4.314,7.615c-3.495,6.479-8.806,17.059-14.148,30.494  c-9.439,23.682-20.686,60.676-20.646,102.51c0.361,48.625,14.048,91.031,42.478,130.814c-9.929-88.5,14.502-190.158,28.493-261.619  c15.039-52.148-4.631-114.564-49.359-125.709c-44.727-11.152-109.566,13.141-135.943,89.861  c-35.658,105.701-43.322,174.502-29.773,290.898C751.721,793.742,778.814,816.768,809.494,826.305z"/>
<path fill="#010302" d="M795.095,430.91c0,0,56.204-36.279,86.204-18.279s44.217,61.119,44.217,61.119s-11.016,229.158,2.384,273.02  s27.399,105.861,35.399,149.861s-32,40-32,40l-76-72l-58-114l-30-92l-16-94L795.095,430.91z"/>
<path fill="#010302" stroke="#FFFFFF" stroke-width="9.4698" d="M975.943,673.781c-15.467,3.504-30.967,2.35-44.025-2.523  c-29.777-11.48-46.275-36.242-58.459-60.98c-17.932-37.764-26.701-81.383-32.254-116.768c-5.4-35.252-6.885-61.971-6.973-63.18  c-1.572-28.195,17.498-55.887,42.592-61.85c25.104-5.967,46.723,12.062,48.289,40.264c0,0,0.014,0.289,0.086,1.389  c0.512,8.141,3.895,50.693,13.297,90.65c4.617,19.928,10.855,39.115,17.588,52.119c6.643,13.424,13.604,18.535,14.557,18.439  c0.605,0.133,0.023,0.133,0.867,0.031c1.066-0.193,6.816-2.064,17.572-12.443c10.643-10.193,25.387-28.312,42.736-55.746  c15.738-24.877,44.402-33.195,64.008-18.592c16.721,12.447,21.461,37.537,12.73,60.062c-1.508,3.891-3.414,7.701-5.738,11.361  c-28.162,44.225-53.859,75.352-82.135,96.336C1006.553,662.725,991.447,670.348,975.943,673.781z"/>


<g>
	<path fill="#494948" d="M187.856,688.107c-3.577,6.332-6.247,13.311-7.722,20.838c-0.928,4.654-34.803,180.404-34.803,554.482   c0,38.547,31.254,69.801,69.787,69.801c38.544,0,69.796-31.254,69.796-69.801c0-189.193,8.858-325.076,17.288-411.561   c15.363,1.633,30.72,3.264,46.079,4.908c19.019,99.061,64.362,244.729,168.138,439.469c12.556,23.574,36.688,36.996,61.647,36.984   c11.068,0,22.307-2.641,32.758-8.209c34.013-18.123,46.906-60.375,28.784-94.395C542.42,1048.066,506.46,928.029,476.817,850.959   c5.587-0.521-67.066-67.797,111.16-373.502c19.275-33.059-0.127-58.916-1.701-60.576c-4.604-4.729-9.999-8.182-15.766-10.428   c-53.824-37.516-107.647-75.033-161.472-112.543c-2.657-1.895-5.564-3.277-8.594-4.268C383.974,292.51,320,355.33,320,355.33   C259.775,459.227,215.214,571.354,187.856,688.107z"/>
	<path fill="#494948" d="M601.144,103.795c-67.593-15.525-134.99,26.678-150.518,94.277   c-15.527,67.602,26.679,134.992,94.271,150.52c67.612,15.539,135.003-26.666,150.53-94.279   C710.955,186.721,668.738,119.322,601.144,103.795z"/>
</g>

<path fill="#494948" stroke="#FFFFFF" stroke-width="10" d="M405.598,398.412c-0.034-13.084,3.041-26.285,6.289-35.758  c1.598-4.732,3.183-8.52,4.277-10.904c0.545-1.195,0.949-2.041,1.176-2.479l0.012-0.041c11.711-21.311,3.937-48.084-17.363-59.791  c-21.311-11.723-48.077-3.936-59.789,17.357c-1.599,3.521-22.233,39.609-22.649,91.615c-0.012,19.141,3.132,40.609,12.135,62.205  c3.219,7.867,7.26,15.654,12.101,23.25c2.525,3.984,5.28,7.91,8.251,11.771c14.844,19.285,35.194,36.936,61.12,51.059  c41.124,22.568,95.663,37.811,169.289,44.389c1.32,0.115,2.629,0.168,3.931,0.168c22.567,0,41.784-17.248,43.804-40.145  c2.149-24.225-15.747-45.588-39.965-47.736c-55.922-4.887-95.031-15.441-121.814-27.49c-15.053-6.766-26.25-14.004-34.251-20.986  c-9.408-8.135-15.128-15.875-19.023-23.529c-0.782-1.541-1.519-3.072-2.167-4.607C407.15,417.6,405.61,408.117,405.598,398.412z"/>



</svg>