<svg xmlns="http://www.w3.org/2000/svg" xmlns:xlink="http://www.w3.org/1999/xlink" version="1.1" id="Layer_1" x="0px" y="0px" width="1520px" height="1384px" viewBox="0 0 1520 1384" enable-background="new 0 0 1520 1384" xml:space="preserve">

<g>

	<g>

		<!-- Spanker's torso -->
		<path fill="#494948" d="M735.257,758.593c-0.535-0.065-1.08-0.108-1.613-0.202L503.28,720.008 c-8.813-1.467-16.893-4.997-23.898-9.975l-17.647,1.093c18.769-23.714,36.536-52.766,51.431-85.521 c20.708-45.532,32.383-90.547,34.986-128.358c8.65-57.831-24.535-114.491-24.535-114.491c-4.507-5.576-10.068-9.781-16.15-12.656 c-0.697-0.433-1.3-0.976-2.021-1.396c-43.695-25.651-119.605-20.202-171.262,52.497C263.75,521.569,234.28,591.72,212.395,718.654 c-8.942,94.033,49.323,121.128,100.142,135.41c11.408,3.205,21.461,5.736,30.423,6.877c5.147,0.82,10.435,1.151,15.856,0.816 l195.402-12.106l-20.084,51.312l-53.586,132.659c-2.011,4.977-3.406,10.047-4.258,15.13l-31.757,81.138l0.113,0.041 c-11.893,36.84,7.414,76.768,44.086,90.103c36.668,13.336,77.118-4.858,91.668-40.733l0.167,0.061l51.824-137.238L731.15,797.67 C736.245,785.047,737.478,771.547,735.257,758.593z"/>

		<!-- Spanker's head -->
		<path fill="#494948" d="M481.546,337.961c62.25,35.271,141.293,13.392,176.575-48.867c35.269-62.24,13.384-141.299-48.862-176.557 C547.001,77.26,467.942,99.142,432.675,161.39C397.407,223.63,419.288,302.701,481.546,337.961z"/>

	</g>

	<!-- Spanker's arm -->
	<path fill="#494948" stroke="#FFFFFF" stroke-width="8" d="M810.288,348.808L641.431,466.427L474.077,380.32   c-22.629-11.651-50.402-2.74-62.049,19.875c-11.641,22.622-2.744,50.407,19.883,62.045l192.002,98.833   c15.166,7.786,33.428,6.568,47.422-3.18L862.96,424.399c2.137-1.482,4.102-3.112,5.91-4.878   c15.822-15.452,18.633-40.519,5.574-59.247C859.897,339.384,831.175,334.254,810.288,348.808z"/>


	<!-- Whitespace of stool -->
	<polygon fill="none" points="221.204,930.05 174.331,1197.485 404.971,1197.485 358.116,930.05  "/>

	<!-- Stool -->
	<path fill="#010302" d="M453.796,930.05v-57.955H125.524v57.955h36.838l-56.955,325.035l58.77,0.356h250.957l58.709-0.724   L416.955,930.05H453.796z M174.331,1197.485l46.873-267.436h136.912l46.854,267.436H174.331z"/>

	<g>

		<!-- Spankee's head -->
		<path fill="#010302" d="M1226.845,782.276c-54.74,47.601-60.52,130.547-12.938,185.287    c47.59,54.743,130.553,60.521,185.276,12.933c54.741-47.59,60.532-130.547,12.944-185.288    C1364.526,740.478,1281.573,734.688,1226.845,782.276z"/>

		<!-- Spankee's torso -->
		<path fill="#010302" d="M238.179,707.277v-0.013c107.859,47.359,208.676,66.269,295.375,69.459    c94.025,3.39,171.156-11.123,225.26-26.711c55.215,6.405,151.309,89.786,158.222,86.023c7.2-3.923,14.586-7.299,22.12-10.056    c22.221-8.307,46.092-12.052,70.9-11.117c24.484,1.108,61.625,6.916,99.959,28.283l1.09,0.605l0.309,0.146l0.42,0.251    c18.27,10.956,29.131,30.991,28.338,52.291c-0.365,9.771-3.224,19.375-8.275,27.805c-16.547,27.597-52.477,36.597-80.092,20.057    c-0.213-0.107-0.91-0.467-1.869-0.955c-1.738-0.863-5.398-2.621-10.282-4.477c-5.308-2.041-19.128-6.797-33.913-7.321    c-9.515-0.343-17.945,0.917-25.8,3.845c-0.218,0.091-0.413,0.207-0.63,0.284c3.349,3.63,6.652,7.194,9.867,10.644    c37.252,47.619,106.439,70.627,145.725,37.534c39.271-33.094,59.705-107.493,7.668-181.417    c-72.141-101.234-129.254-153.087-243.189-216.875c-48.102-22.316-83.531-17.981-110.822-2.256    c-3.775,1.238-7.5,2.699-11.072,4.568c0,0-0.025,0.012-0.039,0.023c-0.244,0.125-1.547,0.789-4.066,1.95    c-19.811,9.233-108.225,45.819-234.398,41.013c-69.963-2.639-151.737-17.607-242.151-57.25    c-36.916-16.197-79.97,0.602-96.169,37.517c-3.801,8.647-5.775,17.659-6.107,26.573    C193.472,666.756,209.929,694.892,238.179,707.277z"/>

	</g>

	<!-- Spankee's torso cover -->
	<path fill="#010302" d="M1124.359,983.319c-33.903,28.767-107.931-2.766-165.345-70.432   c-57.412-67.665-76.469-145.84-42.564-174.607c33.906-28.769,107.934,2.767,165.345,70.431   C1139.209,876.377,1158.27,954.551,1124.359,983.319z"/>

	<!-- Spankee's arm -->
	<path fill="#010302" stroke="#FFFFFF" stroke-width="7.1578" d="M1286.586,1273.425c0.385-0.545,0.76-1.091,1.115-1.655   c5.301-8.266,7.508-17.658,6.967-26.844c-0.779-13.241-7.312-26.007-18.992-34.229c-61.844-43.527-98.932-86.148-121.11-124.604   c-4.482-7.812-8.316-15.454-11.683-22.954c-21.496-47.879-21.832-89.318-16.786-121.47c3.008-18.456,8.052-33.506,12.157-43.55   c2.056-5.017,3.875-8.776,5.051-11.081c0.598-1.146,1.021-1.929,1.244-2.32l-0.014,0.003c12.868-21.253,6.092-48.926-15.145-61.809   c-21.273-12.902-48.956-6.117-61.844,15.139l-0.018,0.003c-1.965,3.526-25.094,41.836-32.129,102.457   c-1.635,14.11-2.397,29.425-1.82,45.785c1.59,43.185,13.31,93.381,42.963,144.751c21.916,38.038,53.446,76.551,96.973,114.129   c15.273,13.189,31.996,26.265,50.344,39.167C1244.182,1298.649,1272.27,1293.771,1286.586,1273.425z"/>

</g>

</svg>